<?xml version="1.0" encoding="UTF-8" standalone="no"?>
<svg
   width="29"
   height="29"
   viewBox="0 0 31 31"
   fill="none"
   version="1.1"
   id="svg11"
   sodipodi:docname="sum 1.svg"
   inkscape:version="1.2.2 (732a01da63, 2022-12-09)"
   xmlns:inkscape="http://www.inkscape.org/namespaces/inkscape"
   xmlns:sodipodi="http://sodipodi.sourceforge.net/DTD/sodipodi-0.dtd"
   xmlns="http://www.w3.org/2000/svg"
   xmlns:svg="http://www.w3.org/2000/svg">
  <sodipodi:namedview
     id="namedview13"
     pagecolor="#ffffff"
     bordercolor="#999999"
     borderopacity="1"
     inkscape:showpageshadow="0"
     inkscape:pageopacity="0"
     inkscape:pagecheckerboard="0"
     inkscape:deskcolor="#d1d1d1"
     showgrid="false"
     inkscape:zoom="43.137931"
     inkscape:cx="14.488409"
     inkscape:cy="14.488409"
     inkscape:window-width="3840"
     inkscape:window-height="2036"
     inkscape:window-x="3348"
     inkscape:window-y="-12"
     inkscape:window-maximized="1"
     inkscape:current-layer="svg11" />
  <g
     clip-path="url(#clip0_137_144)"
     id="g4"
     transform="translate(5.4020783,4.7330135)">
    <path
       d="M 16.337,4.00831 V 2.28629 H 5.14393 l 6.58637,7.08399 c 0.4124,0.44399 0.4068,1.13412 -0.0132,1.57062 l -6.51204,6.773 H 16.3368 v -1.0401 c 0,-0.6301 0.5127,-1.1428 1.143,-1.1428 0.6302,0 1.1434,0.5127 1.1434,1.1428 v 2.1829 C 18.6232,19.4871 18.1102,20 17.4798,20 H 2.52015 C 2.06142,20 1.64833,19.7273 1.46837,19.3047 1.28833,18.8823 1.37796,18.3955 1.69592,18.0645 L 9.32005,10.1355 1.68287,1.92153 C 1.37341,1.58829 1.29064,1.10379 1.47217,0.686573 1.65391,0.269523 2.06543,1.14441e-5 2.52015,1.14441e-5 H 17.4801 c 0.6301,0 1.1433,0.5127115559 1.1433,1.1433085559 v 2.86499 c 0,0.63027 -0.513,1.14318 -1.1433,1.14318 -0.6304,0 -1.1431,-0.51267 -1.1431,-1.14318 z"
       fill="#000000"
       id="path2" />
  </g>
  <defs
     id="defs9">
    <clipPath
       id="clip0_137_144">
      <rect
         width="20"
         height="20"
         fill="white"
         id="rect6" />
    </clipPath>
  </defs>
</svg>
