<svg width="24" height="24" xmlns="http://www.w3.org/2000/svg"><defs><style>.cls-3{fill:#6c2e7c}</style></defs><g id="Icons"><path d="M20 5v15a3 3 0 0 1-3 3H7a3 3 0 0 1-3-3V5Z" style="fill:#0e7cc9"/><path d="M20 5v10a3 3 0 0 1-3 3H7a3 3 0 0 1-3-3V5Z" style="fill:#47a6e3"/></g><g data-name="Layer 4" id="Layer_4"><path class="cls-3" d="M13 0h-2a3 3 0 0 0-3 3v1H2a1 1 0 0 0 0 2h1v14a4 4 0 0 0 4 4h10a4 4 0 0 0 4-4V6h1a1 1 0 0 0 0-2h-6V3a3 3 0 0 0-3-3Zm-3 3a1 1 0 0 1 1-1h2a1 1 0 0 1 1 1v1h-4Zm9 17a2 2 0 0 1-2 2H7a2 2 0 0 1-2-2V6h14Z"/><path class="cls-3" d="M12 9a1 1 0 0 0-1 1v8a1 1 0 0 0 2 0v-8a1 1 0 0 0-1-1Zm3 9a1 1 0 0 0 2 0v-8a1 1 0 0 0-2 0ZM8 9a1 1 0 0 0-1 1v8a1 1 0 0 0 2 0v-8a1 1 0 0 0-1-1Z"/></g></svg>