<svg width="30" height="30" viewBox="0 0 30 30" fill="none" xmlns="http://www.w3.org/2000/svg">
<g clip-path="url(#clip0_201_958)">
<path fill-rule="evenodd" clip-rule="evenodd" d="M13.125 13.125H9.375C8.33947 13.125 7.5 13.9644 7.5 15C7.5 16.0356 8.33947 16.875 9.375 16.875H13.125V20.625C13.125 21.6606 13.9644 22.5 15 22.5C16.0356 22.5 16.875 21.6606 16.875 20.625V16.875H20.625C21.6606 16.875 22.5 16.0356 22.5 15C22.5 13.9644 21.6606 13.125 20.625 13.125H16.875V9.375C16.875 8.33947 16.0356 7.5 15 7.5C13.9644 7.5 13.125 8.33947 13.125 9.375V13.125ZM3.75 0H26.25C28.3211 0 30 1.67893 30 3.75V26.25C30 28.3211 28.3211 30 26.25 30H3.75C1.67893 30 0 28.3211 0 26.25V3.75C0 1.67893 1.67893 0 3.75 0Z" fill="#1C274C"/>
</g>
<defs>
<clipPath id="clip0_201_958">
<rect width="30" height="30" fill="white"/>
</clipPath>
</defs>
</svg>
