<?xml version="1.0" encoding="UTF-8" standalone="no"?>
<svg
   width="30"
   height="30"
   viewBox="0 0 32 32"
   fill="none"
   version="1.1"
   id="svg4"
   sodipodi:docname="table.svg"
   inkscape:version="1.2.2 (732a01da63, 2022-12-09)"
   xmlns:inkscape="http://www.inkscape.org/namespaces/inkscape"
   xmlns:sodipodi="http://sodipodi.sourceforge.net/DTD/sodipodi-0.dtd"
   xmlns="http://www.w3.org/2000/svg"
   xmlns:svg="http://www.w3.org/2000/svg">
  <defs
     id="defs8" />
  <sodipodi:namedview
     id="namedview6"
     pagecolor="#ffffff"
     bordercolor="#999999"
     borderopacity="1"
     inkscape:showpageshadow="0"
     inkscape:pageopacity="0"
     inkscape:pagecheckerboard="0"
     inkscape:deskcolor="#d1d1d1"
     showgrid="false"
     inkscape:zoom="41.7"
     inkscape:cx="14.98801"
     inkscape:cy="14.98801"
     inkscape:window-width="3840"
     inkscape:window-height="2036"
     inkscape:window-x="3348"
     inkscape:window-y="-12"
     inkscape:window-maximized="1"
     inkscape:current-layer="svg4" />
  <path
     d="M 3.5957839,11.752604 H 29.029716 M 3.5957839,20.085723 H 29.029716 M 10.660767,3.4195761 V 28.418753 m -2.5433932,0 H 24.508108 c 1.582717,0 2.374167,0 2.978586,-0.363292 0.531751,-0.319543 0.964127,-0.829526 1.234999,-1.456648 0.308023,-0.713012 0.308023,-1.646464 0.308023,-3.513188 V 8.7527309 c 0,-1.8667689 0,-2.8001757 -0.308023,-3.5131789 C 28.450821,4.6123493 28.018445,4.1024376 27.486694,3.7828766 26.882275,3.4195761 26.090825,3.4195761 24.508108,3.4195761 H 8.1173738 c -1.5826991,0 -2.3740577,0 -2.9785678,0.3633005 C 4.6070551,4.1024376 4.1747328,4.6123493 3.903807,5.239552 3.5957839,5.9525552 3.5957839,6.8859441 3.5957839,8.7527309 V 23.085625 c 0,1.866724 0,2.800176 0.3080231,3.513188 0.2709258,0.627122 0.7032481,1.137105 1.234999,1.456648 0.6045101,0.363292 1.3958505,0.363292 2.9785678,0.363292 z"
     stroke="#000000"
     stroke-width="2.70167"
     id="path2" />
</svg>
